<?xml version="1.0" encoding="UTF-8"?>
<!DOCTYPE svg PUBLIC "-//W3C//DTD SVG 1.1//EN" "http://www.w3.org/Graphics/SVG/1.1/DTD/svg11.dtd">
<!-- Creator: CorelDRAW -->
<svg xmlns="http://www.w3.org/2000/svg" xml:space="preserve" width="162.194mm" height="212.451mm" version="1.1" style="shape-rendering:geometricPrecision; text-rendering:geometricPrecision; image-rendering:optimizeQuality; fill-rule:evenodd; clip-rule:evenodd"
viewBox="0 0 1197.57 1568.65"
 xmlns:xlink="http://www.w3.org/1999/xlink"
 xmlns:xodm="http://www.corel.com/coreldraw/odm/2003">
 <defs>
  <style type="text/css">
   <![CDATA[
    .fil0 {fill:#B39683}
   ]]>
  </style>
 </defs>
 <g id="Camada_x0020_1">
  <metadata id="CorelCorpID_0Corel-Layer"/>
  <path class="fil0" d="M3.74 621.23c1.98,62.72 22.93,155.75 42.75,208.78 10.99,29.42 21.33,58.38 34.38,87.66 7.29,16.35 32.56,74.18 40.07,82.43 8.42,29.77 89.19,153.31 105.54,178.16 65.25,99.18 115,152.15 187.42,237.27l103.59 107.24c37.78,37.65 79.65,64.83 131.61,29.33l10.07 -10.06c3.4,-0.91 2.08,-0.25 5.91,-2.92l38.52 -36.8c23.73,-25.83 118.25,-117.96 125.95,-138.86 12.33,-9.32 50.31,-60.55 63.8,-78.09 21.41,-27.83 39.52,-53.51 61.69,-84.08 19.41,-26.76 104.85,-157.96 108.54,-179.26 6.97,-5.38 4.68,-3.25 9.63,-12.53 2.93,-5.49 4.31,-8.52 7,-14.12 4.96,-10.33 9.3,-19.28 14.29,-29.7 9.6,-20.08 19.05,-38.9 27.56,-60.67 6.56,-16.76 46.63,-118.37 41.9,-129.54 9.93,-7.27 6.49,-13.76 13.21,-34.17 2.73,-8.29 7.04,-28.56 8.37,-37.24 4.36,-28.48 7.51,-58.67 10.21,-85.82 3.27,-32.88 2.43,-98.75 -4.95,-132.53l-7.43 -39.64c-6.56,-26.15 -19.75,-80.34 -35.17,-103.87 -3.99,-6.08 -4.22,-8.67 -6.98,-15.38l-43.05 -74.94c-71.87,-96.63 -142.5,-155.86 -260.19,-206.44 -69.93,-30.05 -154.87,-44.88 -234.06,-45.44 -11.9,-0.09 -78.4,-0.27 -89.01,7.35 -27.39,-4.7 -123.14,25.89 -158.75,39.98 -10.09,3.99 -14.65,4.34 -21.17,12.09 -24.01,-0.91 -117.54,68.41 -137,85.37 -77.98,67.98 -151.34,170.59 -176.52,273.45 -13.57,55.41 -28.62,141.28 -17.72,202.96zm545.49 -226.7c58.65,-6.92 90.49,-14.76 147.2,22.25 41.5,27.08 23.5,42.57 66.64,-3.91 33.09,-35.65 51.99,-29.15 -22.32,-82.17 -47.81,-34.11 -135.06,-49.22 -200.49,-34.27l-39.41 15.09c-20.45,-1.07 -73.25,40.68 -90.5,58.64 -24.55,25.56 -46.19,59.42 -58.57,95.39 -12.19,35.45 -22.31,92.04 -13.87,135.74 6.39,33.1 22.69,93.45 41.49,109.65 16.52,41.03 75.65,79.11 116.32,96.78 81.27,35.31 179.84,24.97 257.63,-18.96 15.71,-8.87 53.91,-38.59 57.02,-49.01 1.55,-5.2 3.57,-190.54 -2.51,-208.04l-210 -0.82c-4.68,12.31 -8.27,73.56 -0.42,85 9.06,9.05 91.1,-0.9 116,4.74l0.25 81.67c-14.88,13.47 -47.26,25.51 -71.74,29.83 -43.53,7.67 -61.89,-2.5 -97.94,-7.43 -4.76,-4.14 -14.11,-6.62 -20.66,-10.4 -52.28,-30.11 -82.8,-92.39 -83.17,-155.7 -0.47,-80.35 45.49,-142.3 109.04,-164.05zm17.38 970.54l-68.53 -71.29c-1.67,-4.54 -3.35,-7.62 -7.01,-13.01l-17.07 -29.86c-46.41,-78.38 33.29,-162.66 112.16,-96.49 11.08,9.3 7.7,6.96 17.16,9.89 6.43,-8.08 24.07,-20.94 37.92,-26.82 22.3,-9.47 41.59,-3.82 61.65,0.94 26.93,15.82 42.1,40.59 35.57,78.23 -3.06,17.67 -7.37,30.76 -14.2,43.18 -4.77,8.67 -20.55,30.04 -21.37,35.7 -9.12,5.27 -16.5,15.51 -24.99,24.9 -11.09,12.27 -66.29,63.94 -76.58,64.61 -11.73,-2.42 -29.85,-19.87 -34.7,-19.98zm199.2 -1215.43c7.47,8.58 40.47,18.36 59.37,28.68 84.1,45.93 126.84,86.86 180.29,163.43 12.37,17.71 20.66,35.87 30.17,55.83 29.83,62.56 24.75,75.25 35.47,127.01 2.36,11.41 -1.84,4.02 4.27,10.39 -2.35,15.02 0.64,42.36 -0.49,60.22 -1.02,16.15 -5.17,38.95 -7.75,54.59 -13.64,82.74 -61.1,164.86 -118.38,224.97 -13.03,13.67 -10.53,7.21 -15.19,19.81 -5.46,-0.39 -3.25,0.19 -10.51,6.17l-30.6 24.52c-14.97,11.85 -28,20.04 -43.79,29.18 -94.47,54.64 -186.31,72.24 -297.14,63.87 -18.32,-1.38 -50.93,-9.46 -64.63,-7.93 -3.75,-3.12 1.08,-0.05 -5.59,-3.3l-11.48 -3.92c-124.69,-32.72 -242.89,-122.41 -299.23,-240.64 -11.13,-23.36 -18.64,-40.73 -26.39,-67.38l-14.45 -68.95c-2.01,-6.26 -0.4,-3.54 -3.91,-6.95 5.81,-45.28 -8.22,-97.74 21.62,-181.02 85.94,-239.86 297.1,-287.8 305.4,-295.43 12.34,-1.66 26.41,-6.68 37.67,-9.33 35.42,-8.35 87.07,-11.68 123.84,-10.8 71.72,1.73 141.78,27.23 151.45,26.97z"/>
 </g>
</svg>
